<svg xmlns="http://www.w3.org/2000/svg" viewBox="0 -960 960 960"><path d="M194.227-125.538q-12.343 0-20.516-8.618-8.173-8.617-8.173-20.921v-190.154q0-25.577 17.981-43.557 17.981-17.981 43.558-17.981h17.846v-167.385q0-25.577 17.981-43.558 17.98-17.98 43.557-17.98h154.77V-694.5q-16.731-10.846-28.058-24.742-11.327-13.896-11.327-33.008 0-11.07 4.404-21.847 4.404-10.778 12.827-19.326L480-833.731l40.864 40.425q8.482 8.306 12.886 19.11 4.404 10.805 4.404 21.902 0 19.156-11.327 33.052T498.769-694.5v58.808h154.77q25.577 0 43.557 17.98 17.981 17.981 17.981 43.558v167.385h17.846q25.577 0 43.558 17.981 17.981 17.98 17.981 43.557v190.154q0 12.304-8.904 20.921-8.903 8.618-21.246 8.618H194.227Zm87.619-281.231h396.308v-167.385q0-10.769-6.923-17.692t-17.692-6.923H306.461q-10.769 0-17.692 6.923t-6.923 17.692v167.385Zm-79.384 244.307h555.076v-182.769q0-10.769-6.923-17.692t-17.692-6.923H227.077q-10.769 0-17.692 6.923t-6.923 17.692v182.769Zm79.384-244.307h396.308-396.308Zm-79.384 244.307h555.076-555.076Zm515.077-244.307H242.461h475.078Z"/></svg>