<svg xmlns="http://www.w3.org/2000/svg" viewBox="0 -960 960 960"><path d="M206.154-166.154v-36.923h547.692v36.923H206.154Zm121.794-144.615q-51.025 0-86.41-34.14-35.384-34.139-35.384-83.706v-365.231h563.077q27.014 0 45.815 17.98 18.8 17.981 18.8 44.327v95.385q0 26.346-18.8 44.327-18.801 17.981-45.815 17.981h-83.077v145.31q0 49.305-35.591 83.536t-86.307 34.231H327.948Zm-.102-36.923h236.5q34.721 0 59.803-23.862 25.082-23.861 25.082-57.369v-328H243.077v328.322q0 33.342 24.901 57.125 24.901 23.784 59.868 23.784Zm358.308-263.077h83.077q11.538 0 19.615-7.308 8.077-7.308 8.077-18.077v-95.385q0-10.769-8.077-18.076-8.077-7.308-19.615-7.308h-83.077v146.154ZM327.846-347.692h-84.769 406.154-321.385Z"/></svg>