<svg xmlns="http://www.w3.org/2000/svg" viewBox="0 -960 960 960"><path d="M595.385-242.462q-34.587 0-58.678-24.091-24.092-24.092-24.092-58.678t24.092-58.678Q560.798-408 595.385-408q34.586 0 58.677 24.091 24.092 24.092 24.092 58.678t-24.092 58.678q-24.091 24.091-58.677 24.091Zm-368.49 116.308q-25.756 0-43.556-17.8-17.801-17.801-17.801-43.556v-506.21q0-25.756 17.801-43.557 17.8-17.8 43.738-17.8h73.846v-89.231h40v89.231h281.231v-89.231h36.923v89.231h73.846q25.938 0 43.738 17.8 17.801 17.801 17.801 43.557v506.21q0 25.755-17.801 43.556-17.8 17.8-43.556 17.8h-506.21Zm.182-36.923h505.846q9.231 0 16.923-7.692 7.692-7.692 7.692-16.923v-346.462H202.462v346.462q0 9.231 7.692 16.923 7.692 7.692 16.923 7.692Zm-24.615-408h555.076v-122.462q0-9.23-7.692-16.923-7.692-7.692-16.923-7.692H227.077q-9.231 0-16.923 7.692-7.692 7.693-7.692 16.923v122.462Zm0 0v-147.077 147.077Z"/></svg>