<svg xmlns="http://www.w3.org/2000/svg" viewBox="0 -960 960 960"><path d="M238.654-400.03q0 70.299 37.5 128.934 37.5 58.634 101.807 87.865-8.423-12.654-12.327-26.615-3.903-13.962-3.903-28.154 0-22.923 9.307-43.75 9.308-20.827 25.654-37.558L480-401.885l84.577 82.577q16.346 16.731 25.212 37.558 8.865 20.827 8.865 43.75 0 14.32-4.096 28.154-4.096 13.833-12.135 26.615 63.923-29.231 101.616-87.771Q721.731-329.543 721.731-400q0-50.223-19-95.227-19-45.004-54.231-80.619-20 13.308-42.25 19.711-22.25 6.404-45.25 6.404-61.769 0-107.154-41.307-45.384-41.308-51.498-103.577-39.848 33.23-70.463 69.096-30.616 35.865-51.366 73.442-20.75 37.577-31.307 75.827-10.558 38.25-10.558 76.22ZM480-350.346l-57.855 57.178q-11.376 11.437-17.433 25.722-6.058 14.284-6.058 29.554 0 32.507 23.93 55.873 23.93 23.365 57.481 23.365 33.55 0 57.608-23.415t24.058-55.948q0-16.267-6-30.321-6-14.053-17.5-24.893L480-350.346ZM438.654-766v58q0 51.433 35.423 86.389 35.423 34.957 86.818 34.957 18.99 0 37.105-6.404t34.461-18.827l16.5-12.423q51.496 39.507 80.594 98.908 29.099 59.4 29.099 125.241 0 116.505-81.154 197.467-81.154 80.961-197.5 80.961t-197.308-80.961Q201.731-283.654 201.731-400q0-101 63.711-199.25Q329.154-697.5 438.654-766Z"/></svg>