<svg xmlns="http://www.w3.org/2000/svg" viewBox="0 -960 960 960"><path d="M138.654-397.115q-25.938 0-43.738-17.801-17.8-17.8-17.8-43.738v-323.077q0-25.577 17.8-43.558 17.8-17.98 43.738-17.98h683.077q25.577 0 43.558 17.98 17.98 17.981 17.98 43.558v323.077q0 25.938-17.98 43.738-17.981 17.801-43.558 17.801H138.654Zm0-409.231q-10.769 0-17.692 7.115-6.924 7.116-6.924 17.5v323.077q0 10.769 6.924 17.692 6.923 6.924 17.692 6.924h683.077q10.384 0 17.5-6.924 7.115-6.923 7.115-17.692v-323.077q0-10.384-7.115-17.5-7.116-7.115-17.5-7.115H138.654Zm-4.116 557.885-1.461-35.385 694.385-36.462 1.461 35.385-694.385 36.462Zm-2.23 99.769v-35.385h695.384v35.385H132.308Zm296.931-371.5q63.569 0 123.049-20.75 59.481-20.75 105.097-65.673 5.884 31.384 33.404 48.461 27.519 17.077 60.75 18.731v-161.539q-33.042 3.308-61.04 20.693-27.999 17.384-33.114 48.884-46.808-43.585-105.693-66.196-58.884-22.611-122.453-22.611-68.538 0-131.908 22.96-63.37 22.961-105.293 77.231 41.154 54.27 104.908 77.04 63.755 22.769 132.293 22.769ZM114.038-806.346v372.308-372.308Z"/></svg>