<svg xmlns="http://www.w3.org/2000/svg" viewBox="0 -960 960 960"><path d="M279.423-55.385v-181.73h-44.038q-32.87 0-55.57-22.688-22.7-22.687-22.7-55.538t22.7-55.774q22.7-22.923 55.57-22.923h44.038v-67.693H157.115v-156.923h122.308v-67.692h-44.038q-32.87 0-55.57-22.688-22.7-22.687-22.7-55.538t22.7-55.774q22.7-22.923 55.57-22.923h44.038v-61.346h32.308v61.346h43.654q32.869 0 55.761 22.879 22.892 22.88 22.892 55.731t-22.892 55.582q-22.892 22.731-55.761 22.731h-43.654v67.692h122.307v156.923H311.731v67.693h43.654q32.869 0 55.761 22.879 22.892 22.88 22.892 55.731t-22.892 55.582q-22.892 22.731-55.761 22.731h-43.654v181.73h-32.308Zm369.231 0v-181.73h-44.039q-32.869 0-55.569-22.688-22.7-22.687-22.7-55.538t22.7-55.774q22.7-22.923 55.569-22.923h44.039v-67.693H526.346v-156.923h122.308v-67.692h-44.039q-32.869 0-55.569-22.688-22.7-22.687-22.7-55.538t22.7-55.774q22.7-22.923 55.569-22.923h44.039v-61.346h32.308v61.346h43.653q32.87 0 55.762 22.879 22.892 22.88 22.892 55.731t-22.892 55.582q-22.892 22.731-55.762 22.731h-43.653v67.692h122.307v156.923H680.962v67.693h43.653q32.87 0 55.762 22.879 22.892 22.88 22.892 55.731t-22.892 55.582q-22.892 22.731-55.762 22.731h-43.653v181.73h-32.308Zm-413.269-668.5h120q17.076 0 29.096-11.772 12.019-11.772 12.019-28.904 0-17.131-12.019-29.151-12.02-12.019-29.096-12.019h-120q-17.154 0-28.943 12.019-11.788 12.02-11.788 29.151 0 17.132 11.788 28.904 11.789 11.772 28.943 11.772Zm369.23 0h120q17.077 0 29.097-11.772 12.019-11.772 12.019-28.904 0-17.131-12.019-29.151-12.02-12.019-29.097-12.019h-120q-17.153 0-28.942 12.019-11.788 12.02-11.788 29.151 0 17.132 11.788 28.904 11.789 11.772 28.942 11.772ZM194.654-499.269H396.5v-81.846H194.654v81.846Zm369.231 0h201.846v-81.846H563.885v81.846Zm-328.5 224.615h120q17.076 0 29.096-11.772Q396.5-298.198 396.5-315.33q0-17.131-12.019-29.151-12.02-12.019-29.096-12.019h-120q-17.154 0-28.943 12.019-11.788 12.02-11.788 29.151 0 17.132 11.788 28.904 11.789 11.772 28.943 11.772Zm369.23 0h120q17.077 0 29.097-11.772 12.019-11.772 12.019-28.904 0-17.131-12.019-29.151-12.02-12.019-29.097-12.019h-120q-17.153 0-28.942 12.019-11.788 12.02-11.788 29.151 0 17.132 11.788 28.904 11.789 11.772 28.942 11.772ZM194.654-723.885v-81.846 81.846Zm369.231 0v-81.846 81.846ZM194.654-499.269v-81.846 81.846Zm369.231 0v-81.846 81.846ZM194.654-274.654V-356.5v81.846Zm369.231 0V-356.5v81.846Z"/></svg>