<svg xmlns="http://www.w3.org/2000/svg" viewBox="0 -960 960 960"><path d="M334.769-216h33.539v-255.972q28.307-4.759 47.231-25.259 18.923-20.5 18.923-50.038v-141.962q0-6.461-4.462-10.923-4.462-4.461-10.923-4.461-6.462 0-10.923 4.461-4.462 4.462-4.462 10.923v127.808h-36.461v-127.808q0-6.461-4.462-10.923-4.461-4.461-10.923-4.461-6.461 0-10.923 4.461-4.461 4.462-4.461 10.923v127.808h-37.077v-127.808q0-6.461-4.462-10.923-4.461-4.461-10.923-4.461t-10.923 4.461q-4.462 4.462-4.462 10.923v141.962q0 29.538 18.923 50.038 18.923 20.5 47.231 25.193V-216Zm237.539 0h33.538v-246.808q32.116-11.154 50.75-43.44 18.635-32.286 18.635-77.714 0-52.148-24.376-86.401-24.376-34.252-61.47-34.252-37.095 0-61.471 34.307-24.376 34.308-24.376 86.406 0 45.328 18.588 77.543 18.588 32.216 50.182 43.494V-216Zm-384.785 89.846q-25.768 0-43.569-17.8-17.8-17.801-17.8-43.569v-584.954q0-25.768 17.8-43.569 17.801-17.8 43.569-17.8h584.954q25.768 0 43.569 17.8 17.8 17.801 17.8 43.569v584.954q0 25.768-17.8 43.569-17.801 17.8-43.569 17.8H187.523Zm.169-36.923h584.616q9.231 0 16.923-7.692 7.692-7.692 7.692-16.923v-584.616q0-9.231-7.692-16.923-7.692-7.692-16.923-7.692H187.692q-9.231 0-16.923 7.692-7.692 7.692-7.692 16.923v584.616q0 9.231 7.692 16.923 7.692 7.692 16.923 7.692Zm-24.615 0v-633.846 633.846Z"/></svg>