<svg xmlns="http://www.w3.org/2000/svg" viewBox="0 -960 960 960"><path d="M315.796-535.115q-45.373 0-77.508-32.229-32.134-32.229-32.134-77.822 0-45.18 32.041-77.315t77.793-32.135q45.18 0 77.615 32.135 32.436 32.135 32.436 77.507 0 45.373-32.436 77.616-32.435 32.243-77.807 32.243Zm.084-36.924q30.543 0 51.889-21.108 21.346-21.109 21.346-51.923 0-30.43-21.357-51.526-21.357-21.096-51.867-21.096-30.51 0-51.662 21.155-21.152 21.155-21.152 51.376 0 30.815 21.234 51.969 21.234 21.153 51.569 21.153Zm329.094 365.885q-45.373 0-77.616-32.041t-32.243-77.793q0-45.18 32.229-77.615 32.229-32.436 77.822-32.436 45.18 0 77.315 32.436 32.135 32.435 32.135 77.807 0 45.373-32.135 77.508-32.135 32.134-77.507 32.134Zm.096-36.923q30.43 0 51.526-21.211 21.096-21.211 21.096-51.513 0-30.51-21.155-51.912-21.155-21.402-51.376-21.402-30.815 0-51.969 21.301-21.153 21.301-21.153 51.843 0 30.543 21.108 51.719 21.109 21.175 51.923 21.175Zm-405.647 29.231-25.577-25.577 507.385-506.885 25.577 25.193-507.385 507.269Z"/></svg>