<svg xmlns="http://www.w3.org/2000/svg" viewBox="0 -960 960 960"><path d="m480-160.923-338.77-508q73.27-57.692 159.209-91.616Q386.378-794.462 480-794.462q93.978 0 180.047 33.673 86.069 33.674 159.338 91.866L480-160.923Zm0-66.154 289.538-433.692q-64.884-44.385-138.06-70.577-73.175-26.192-151.269-26.192-78.478 0-151.171 26.442-72.692 26.442-137.961 70.327L480-227.077Zm-126.477-356.5q16.131 0 27.554-11.022 11.423-11.023 11.423-27.539 0-16.131-11.215-27.554-11.215-11.423-27.346-11.423-16.516 0-27.747 11.214-11.23 11.215-11.23 27.347 0 16.516 11.022 27.746 11.023 11.231 27.539 11.231Zm126.884 201.116q16.516 0 27.747-11.023 11.231-11.023 11.231-27.539 0-16.516-11.023-27.746Q497.339-460 480.824-460q-16.516 0-27.747 11.023-11.231 11.022-11.231 27.538t11.023 27.747q11.022 11.231 27.538 11.231Zm.093 155.384Z"/></svg>