<svg xmlns="http://www.w3.org/2000/svg" viewBox="0 -960 960 960"><path d="M223.269-161.731q-25.937 0-43.738-17.8-17.8-17.801-17.8-43.738V-600q0-82.805 57.732-140.729Q277.195-798.654 360-798.654h240q82.805 0 140.729 57.925Q798.654-682.805 798.654-600v376.731q0 25.937-17.981 43.738-17.98 17.8-43.557 17.8H223.269Zm0-36.923h513.847q10.384 0 17.499-6.923 7.116-6.923 7.116-17.692v-376.564q0-67.282-47.274-114.59Q667.183-761.731 600-761.731H360q-67.024 0-114.185 47.274T198.654-600v376.731q0 10.769 6.923 17.692t17.692 6.923Zm136.774-303.077q-24.735 0-41.524-16.858-16.788-16.858-16.788-41.481 0-24.622 16.858-41.603t41.481-16.981q24.622 0 41.603 16.938 16.981 16.939 16.981 41.673 0 24.735-16.938 41.524-16.939 16.788-41.673 16.788Zm240 0q-24.735 0-41.524-16.858-16.788-16.858-16.788-41.481 0-24.622 16.858-41.603t41.481-16.981q24.622 0 41.603 16.938 16.981 16.939 16.981 41.673 0 24.735-16.938 41.524-16.939 16.788-41.673 16.788ZM301.731-198.654v-78.461q0-25.577 17.8-43.558 17.801-17.981 43.738-17.981h233.846q25.577 0 43.558 17.981 17.981 17.981 17.981 43.558v78.461h-36.923v-78.461q0-10.385-7.116-17.5-7.115-7.116-17.5-7.116h-98.461v103.077h-36.923v-103.077h-98.462q-10.769 0-17.692 7.116-6.923 7.115-6.923 17.5v78.461h-36.923Zm-78.462 0h538.462-563.077H223.269Z"/></svg>