<svg xmlns="http://www.w3.org/2000/svg" viewBox="0 -960 960 960"><path d="M214.962-427.462q6.846-11.5 9.673-24.461 2.827-12.962 2.827-28.077 0-34.039-20-74.115-20-40.077-20-70.885 0-10.154 2.211-21.75 2.212-11.596 10.596-25.98h44.961q-8.384 14.384-10.442 25.634T232.73-625q0 29.616 20 69.712 20 40.095 20 75.288 0 16.307-3.269 29.25-3.269 12.942-9.73 23.288h-44.769Zm260 0q6.846-11.5 9.673-24.308 2.827-12.807 2.827-28.23 0-34.346-20-74.115t-20-70.885q0-10.154 2.211-21.75 2.212-11.596 10.596-25.98h44.961q-8.384 14.384-10.442 25.634T492.73-625q0 29.616 20 69.712 20 40.095 20 75.288 0 16.307-3.269 29.25-3.269 12.942-9.73 23.288h-44.769Zm-130 0q6.846-11.5 9.673-24.308 2.827-12.807 2.827-28.23 0-34.346-20-74.115t-20-70.885q0-10.154 2.211-21.75 2.212-11.596 10.596-25.98h44.961q-8.384 14.384-10.442 25.634T362.73-625q0 29.616 20 69.712 20 40.095 20 75.288 0 16.307-3.269 29.25-3.269 12.942-9.73 23.288h-44.769ZM390-92.116q-95.846 0-169.365-64.788-73.519-64.789-88.519-159.75-1.923-12.769 6.154-22.096 8.076-9.326 21.73-9.326h431.462l45.654-424.462q4.423-40.154 34.673-67.846T744-868.076q44.961 0 76.519 31.557 31.557 31.558 31.557 76.519 0 9.423-1.423 24.769-1.423 15.345-2.115 21.653l-55.653-6.884q.193-2.693 1.712-17.635 1.519-14.942 1.519-21.903 0-21.654-15.231-36.885-15.231-15.231-36.885-15.231-20.846 0-35.385 13.654-14.539 13.654-16.539 33.308l-46 434.5q-10.807 101.538-83.269 170.038-72.461 68.5-172.807 68.5Zm0-55.96q66.424 0 117.501-39.693t74.038-104.347H194.768q24.962 64.654 76.885 104.347T390-148.076Zm0-144.04Z"/></svg>